<svg width="859" height="316" viewBox="0 0 859 316" fill="none" xmlns="http://www.w3.org/2000/svg">
<path d="M617.241 260.908H833.404C824.025 276.062 792.681 308.196 742.338 315.5H617.241V260.908Z" fill="white"/>
<path d="M617.241 131.75V190.147H858.5V131.75H617.241Z" fill="white"/>
<path d="M617.241 0.5V61.1793H833.404C826.56 45.2645 798.765 10.8478 742.338 0.5H617.241Z" fill="white"/>
<path fill-rule="evenodd" clip-rule="evenodd" d="M356.97 0.5V315.5H495.946C543.856 315.12 588.229 287.69 583.97 231.234C579.712 174.777 556.34 152.547 545.186 148.489C555.833 138.851 575.757 109.418 570.282 68.788C564.807 28.1576 526.175 0.5 501.269 0.5H356.97ZM418.568 183.489V255.582H483.779C496.897 251.27 519.33 250.255 519.33 220.582C519.33 199.689 494.869 184.44 483.779 183.489H418.568ZM418.568 61.1793V122.62H476.934C486.567 124.141 506.25 120.679 507.923 94.6576C509.596 68.6359 487.961 61.4964 476.934 61.1793H418.568Z" fill="white"/>
<path d="M0.5 315.5V0.5H59.6265L157.537 172.076L253.927 0.5H313.814V315.5H253.927V137.076L178.07 260.908H137.765L65.7103 137.076V315.5H0.5Z" fill="white"/>
<path d="M617.241 260.908H833.404C824.025 276.062 792.681 308.196 742.338 315.5H617.241V260.908Z" stroke="black"/>
<path d="M617.241 131.75V190.147H858.5V131.75H617.241Z" stroke="black"/>
<path d="M617.241 0.5V61.1793H833.404C826.56 45.2645 798.765 10.8478 742.338 0.5H617.241Z" stroke="black"/>
<path fill-rule="evenodd" clip-rule="evenodd" d="M356.97 0.5V315.5H495.946C543.856 315.12 588.229 287.69 583.97 231.234C579.712 174.777 556.34 152.547 545.186 148.489C555.833 138.851 575.757 109.418 570.282 68.788C564.807 28.1576 526.175 0.5 501.269 0.5H356.97ZM418.568 183.489V255.582H483.779C496.897 251.27 519.33 250.255 519.33 220.582C519.33 199.689 494.869 184.44 483.779 183.489H418.568ZM418.568 61.1793V122.62H476.934C486.567 124.141 506.25 120.679 507.923 94.6576C509.596 68.6359 487.961 61.4964 476.934 61.1793H418.568Z" stroke="black"/>
<path d="M0.5 315.5V0.5H59.6265L157.537 172.076L253.927 0.5H313.814V315.5H253.927V137.076L178.07 260.908H137.765L65.7103 137.076V315.5H0.5Z" stroke="black"/>
</svg>
