<svg xmlns="http://www.w3.org/2000/svg" viewBox="0 0 500 500">
  <defs></defs>
  <ellipse style="stroke: rgb(0, 0, 0); fill: rgb(255, 255, 255); paint-order: stroke;" cx="250" cy="251.625" rx="212.354" ry="218.389"></ellipse>
  <g transform="matrix(0.266225, 0, 0, -0.262791, -22.278218, 519.070686)" fill="#000000" stroke="none" style="">
    <path d="M930 1949 c-114 -10 -194 -34 -315 -94 -220 -109 -383 -288 -465
-514 -188 -514 101 -1069 637 -1223 66 -19 103 -23 238 -23 137 0 171 3 240
23 328 94 576 349 661 677 34 134 36 299 5 430 -26 108 -100 267 -164 351 -53
70 -154 167 -222 214 -173 119 -405 179 -615 159z m-245 -434 c0 -32 -4 -40
-20 -43 -47 -7 -74 -25 -84 -54 -6 -17 -11 -89 -11 -159 0 -132 -7 -169 -41
-205 l-21 -22 29 -43 c27 -41 28 -48 34 -198 3 -86 9 -164 13 -174 5 -9 29
-23 55 -31 45 -13 46 -14 46 -52 l0 -39 -52 2 c-71 3 -126 32 -149 80 -14 30
-19 72 -23 196 -6 159 -6 159 -34 183 -15 13 -37 24 -48 24 -16 0 -19 7 -19
45 0 38 3 45 19 45 11 0 33 11 48 24 28 24 28 24 34 183 4 124 9 166 23 196
25 52 96 88 166 84 34 -2 35 -3 35 -42z m813 18 c65 -32 76 -66 82 -251 l5
-164 28 -24 c15 -13 37 -24 48 -24 16 0 19 -7 19 -45 0 -38 -3 -45 -19 -45
-11 0 -33 -11 -48 -24 l-28 -24 -5 -164 c-4 -139 -8 -168 -25 -197 -24 -42
-73 -68 -142 -77 l-53 -7 0 46 c0 43 1 45 36 51 67 13 74 29 74 179 0 145 9
193 44 234 l24 28 -24 28 c-35 42 -44 89 -44 232 0 152 -8 171 -71 181 -39 7
-39 7 -39 52 l0 45 51 -6 c28 -4 67 -14 87 -24z m-609 -524 c17 -6 36 -19 41
-29 6 -10 10 -66 10 -124 0 -95 -2 -107 -22 -126 -27 -25 -90 -27 -113 -4 -13
13 -15 37 -13 142 3 124 4 127 28 139 31 16 30 16 69 2z m344 -16 c14 -14 17
-34 17 -134 0 -110 -1 -119 -22 -133 -12 -9 -36 -16 -53 -16 -17 0 -41 7 -53
16 -21 14 -22 23 -22 133 0 123 5 137 50 154 21 8 62 -2 83 -20z" style="fill: rgb(235, 93, 9);"></path>
  </g>
</svg>